<?xml version="1.0" encoding="UTF-8"?>
<svg version="1.1" xmlns="http://www.w3.org/2000/svg" width="500" height="500">
<path d="M0 0 C165 0 330 0 500 0 C500 165 500 330 500 500 C335 500 170 500 0 500 C0 335 0 170 0 0 Z " fill="#FEFEFE" transform="translate(0,0)"/>
<path d="M0 0 C1.04607422 0.45246094 1.04607422 0.45246094 2.11328125 0.9140625 C10.36616843 4.73743396 16.90732228 10.81464456 21 19 C21.09371972 20.60511793 21.12373436 22.21413374 21.12304783 23.82198524 C21.12503888 24.84660225 21.12702993 25.87121925 21.12908131 26.92688525 C21.12616847 28.06110741 21.12325563 29.19532958 21.12025452 30.36392212 C21.12153615 32.16120666 21.12153615 32.16120666 21.12284368 33.99479997 C21.1242104 37.3309641 21.12106846 40.66707011 21.11606562 44.00322723 C21.11176016 47.59695436 21.11320761 51.19067959 21.1139679 54.78440857 C21.11449307 61.01423191 21.11134695 67.2440448 21.10573006 73.47386551 C21.09761418 82.48121745 21.09499975 91.48856431 21.09374207 100.49591951 C21.09155169 115.10861067 21.08489197 129.72129625 21.07543945 144.33398438 C21.06626498 158.53157524 21.05918432 172.72916459 21.05493164 186.92675781 C21.05466892 187.80142207 21.05440619 188.67608633 21.05413551 189.57725556 C21.0528305 193.96504716 21.05156679 198.35283877 21.05032361 202.74063039 C21.03995143 239.16042419 21.02233349 275.58021166 21 312 C20.01 312.33 19.02 312.66 18 313 C17.30641821 314.65564686 16.64308112 316.32409162 16 318 C9.83224466 325.98180103 0.89879404 331.18522109 -9 333 C-20.84060143 333.95252363 -30.76046937 332.31590084 -40.140625 324.71875 C-43.36809543 321.73537397 -46.42663381 318.57054559 -49 315 C-49 314.34 -49 313.68 -49 313 C-49.66 313 -50.32 313 -51 313 C-52.59997398 309.50005693 -53.48062526 306.85093575 -53 303 C-51.27734375 301.2265625 -51.27734375 301.2265625 -48.9375 299.625 C-42.74124166 295.13637191 -37.83773412 290.6655382 -34 284 C-33.34 284 -32.68 284 -32 284 C-32.495 282.515 -32.495 282.515 -33 281 C-33.99 280.67 -34.98 280.34 -36 280 C-36.2578125 280.73476563 -36.515625 281.46953125 -36.78125 282.2265625 C-40.89367714 291.58497042 -50.61998329 298.70861476 -59.6875 302.9375 C-70.73193721 306.47795467 -81.93415172 304.06792361 -92 299 C-97.69358186 295.92071253 -101.66172396 291.53933717 -105 286 C-105 285.34 -105 284.68 -105 284 C-105.66 284 -106.32 284 -107 284 C-111.0103001 273.22231849 -113.6424052 261.27539479 -109.23046875 250.15234375 C-104.86352315 242.51365478 -97.90111784 235.90296182 -90 232 C-89.01 232 -88.02 232 -87 232 C-87 230.68 -87 229.36 -87 228 C-97.53911318 230.98276788 -105.34381732 238.54484903 -112 247 C-116.2407901 246.51067807 -119.15359612 244.00026355 -122 241 C-126.81933671 233.12643344 -128.53562297 225.19531646 -128.5625 216.0625 C-128.56491699 215.28245605 -128.56733398 214.50241211 -128.56982422 213.69873047 C-128.35552498 206.25857849 -126.11621948 200.15586297 -121.9375 194 C-121.43089844 193.236875 -120.92429687 192.47375 -120.40234375 191.6875 C-119.93957031 191.130625 -119.47679688 190.57375 -119 190 C-118.34 190 -117.68 190 -117 190 C-117.7425 188.824375 -117.7425 188.824375 -118.5 187.625 C-120 185 -120 185 -120 183 C-120.66 183 -121.32 183 -122 183 C-122.50559908 181.56445975 -123.0042749 180.1264798 -123.5 178.6875 C-123.7784375 177.88699219 -124.056875 177.08648437 -124.34375 176.26171875 C-125 174 -125 174 -125 171 C-125.66 171 -126.32 171 -127 171 C-127.67284863 159.08808726 -127.85758627 150.22515095 -121 140 C-117 140 -117 140 -115.10546875 141.57421875 C-114.47253906 142.27160156 -113.83960937 142.96898437 -113.1875 143.6875 C-103.51163471 153.75466866 -93.84903388 156.22316831 -80 157 C-80 155.35 -80 153.7 -80 152 C-80.556875 152.02320313 -81.11375 152.04640625 -81.6875 152.0703125 C-90.23777296 152.2725149 -97.7030393 150.65840883 -105 146 C-105.495 145.01 -105.495 145.01 -106 144 C-107.0828125 143.443125 -107.0828125 143.443125 -108.1875 142.875 C-113.39584165 139.40277223 -117.18318332 133.98723679 -119 128 C-120.65596004 115.30380132 -119.4987803 104.63154106 -112 94 C-107.37097824 88.33144744 -101.46160386 82.33510303 -94 81 C-79.29765698 80.20527876 -68.80373649 81.47037788 -57 91 C-56.47277344 91.5465625 -55.94554687 92.093125 -55.40234375 92.65625 C-53.92654924 94.26227896 -53.92654924 94.26227896 -51 95 C-52.57318344 89.05686254 -57.01113888 85.88251912 -62.015625 82.73046875 C-63.65776563 81.78590412 -65.3265657 80.88794473 -67 80 C-67 79.34 -67 78.68 -67 78 C-75.25 77.34 -83.5 76.68 -92 76 C-92.061875 73.6075 -92.12375 71.215 -92.1875 68.75 C-92.22846802 67.62996582 -92.22846802 67.62996582 -92.27026367 66.48730469 C-92.32332078 62.2450178 -91.83841444 60.12296726 -89 57 C-88.62875 55.948125 -88.2575 54.89625 -87.875 53.8125 C-84.21408398 45.06384941 -76.09310671 40.0448707 -67.89453125 36.09375 C-56.15435553 31.65751626 -43.48519621 33.87388351 -32 38 C-28.48450188 39.77358464 -25.27063848 41.81957435 -22 44 C-20.67730348 44.687529 -19.34702703 45.36145446 -18 46 C-18.34912845 43.30007334 -18.72613072 42.2340763 -20.828125 40.4375 C-31.21404143 34.27295605 -42.11211811 31.62789013 -54 30 C-51.83178261 18.64172356 -47.88408244 10.1482818 -38.22265625 3.31640625 C-26.47679756 -3.64027983 -12.66952377 -5.73436859 0 0 Z " fill="#0D2D3C" transform="translate(197,85)"/>
<path d="M0 0 C53 0 53 0 61 5 C64.89249775 9.22377416 67.11697623 11.70108184 67.14717102 17.40739441 C67.15432632 18.33399872 67.16148163 19.26060303 67.16885376 20.21528625 C67.17154266 21.23503036 67.17423157 22.25477448 67.17700195 23.30541992 C67.18357315 24.37711426 67.19014435 25.44880859 67.19691467 26.55297852 C67.21668189 30.11214258 67.22831864 33.67126436 67.23828125 37.23046875 C67.24235678 38.44451197 67.2464323 39.65855518 67.25063133 40.90938759 C67.27150784 47.33648128 67.28580206 53.76355353 67.29516602 60.19067383 C67.30622663 66.83089706 67.34061842 73.47077655 67.38033772 80.11089611 C67.40648185 85.21444828 67.41485598 90.31792033 67.41844749 95.42153358 C67.42332003 97.8691363 67.43495289 100.31673529 67.45348549 102.76427269 C67.47782639 106.19232107 67.47692048 109.61949912 67.4699707 113.04760742 C67.48278076 114.05723038 67.49559082 115.06685333 67.50878906 116.10707092 C67.46310343 122.29626546 66.63842315 125.94527618 63 131 C45.45141606 147.78560203 27.28416687 139 0 139 C0 93.13 0 47.26 0 0 Z " fill="#54BDE8" transform="translate(233,181)"/>
<path d="M0 0 C0.77429855 -0.00525696 1.54859711 -0.01051392 2.34635925 -0.01593018 C4.90827555 -0.02914377 7.46957141 -0.02038667 10.03149414 -0.01025391 C11.81124491 -0.01227446 13.59099487 -0.01518575 15.3707428 -0.01895142 C19.10238521 -0.02337677 22.83381229 -0.01693772 26.56542969 -0.00292969 C31.34844352 0.01414996 36.13095189 0.00433019 40.91394711 -0.01364708 C44.58996892 -0.02448982 48.26587101 -0.02103612 51.94189644 -0.0132637 C53.70534894 -0.01126241 55.46881231 -0.0137185 57.23225212 -0.02070236 C59.6980961 -0.02832359 62.16312309 -0.01670318 64.62890625 0 C65.35787109 -0.00607269 66.08683594 -0.01214539 66.83789062 -0.0184021 C69.71470668 0.01768942 71.97379593 0.18524783 74.56602573 1.48301601 C77.24608619 4.29912923 76.88248854 6.41026208 76.88708496 10.2518158 C76.89332492 10.95392781 76.89956489 11.65603983 76.90599394 12.37942797 C76.92198122 14.73807294 76.9092982 17.09569261 76.89672852 19.4543457 C76.90214717 21.14286402 76.90926839 22.83137761 76.91796875 24.5198822 C76.93623706 29.11085323 76.92911983 33.70146556 76.91645241 38.29244304 C76.90634119 43.09256012 76.91571301 47.89264602 76.92199707 52.69276428 C76.92927967 60.75560024 76.91967047 68.81828978 76.90063477 76.88110352 C76.87887221 86.20667322 76.88591042 95.53189304 76.90794039 104.85745424 C76.92608577 112.85839076 76.92865671 120.85922188 76.91818571 128.86017233 C76.91194508 133.64126004 76.91113061 138.42218324 76.92433167 143.20326042 C76.93587676 147.69886861 76.92788912 152.19402537 76.90475464 156.68958473 C76.89946003 158.34077072 76.90099417 159.99199462 76.9098053 161.64316559 C76.92071557 163.89514788 76.90705407 166.14567831 76.88708496 168.39756775 C76.88557686 169.65837127 76.88406876 170.91917479 76.88251495 172.21818447 C76.28615077 175.97385991 75.42283788 177.16908527 72.37915039 179.38818359 C69.65945226 179.77787795 67.34580557 179.92592573 64.62890625 179.88989258 C63.85285538 179.89529556 63.0768045 179.90069855 62.27723694 179.90626526 C59.71576636 179.91875808 57.15541846 179.90226018 54.59399414 179.88427734 C52.8132776 179.8844323 51.03256071 179.88592079 49.25184631 179.88868713 C45.52191234 179.89007132 41.79236282 179.87750876 38.0625 179.85473633 C33.27827322 179.8263309 28.49468425 179.82909429 23.71041012 179.84182644 C20.03441404 179.84877605 16.35856578 179.84100293 12.68258858 179.82856941 C10.91831593 179.82404937 9.15402744 179.82372293 7.38975334 179.82763481 C4.9261703 179.83054057 2.4634714 179.81407212 0 179.79223633 C-0.73098907 179.79673798 -1.46197815 179.80123962 -2.21511841 179.80587769 C-5.10202525 179.76329423 -7.13624454 179.71239337 -9.57371521 178.0816803 C-11.35607134 175.1991332 -10.97210375 172.6665556 -10.62084961 169.38818359 C-9.5068512 167.69447327 -9.5068512 167.69447327 -7.62084961 166.38818359 C-4.69200134 166.00291443 -4.69200134 166.00291443 -1.06982422 165.98754883 C-0.40935593 165.98056976 0.25111237 165.9735907 0.93159485 165.96640015 C3.11346172 165.94641336 5.29485635 165.94692358 7.47680664 165.94677734 C8.99231751 165.93500863 10.50781677 165.92164565 12.02330017 165.90675354 C16.01245231 165.8705455 20.00150153 165.85035791 23.99078369 165.83520508 C30.37994734 165.81038352 36.76888358 165.77084238 43.15783501 165.71330452 C45.39255413 165.69693667 47.6270599 165.6931945 49.86183167 165.69029236 C51.22706475 165.68051929 52.59229444 165.67025655 53.95751953 165.65942383 C55.15204239 165.65514877 56.34656525 165.65087372 57.57728577 165.64646912 C60.5169617 165.67651431 60.5169617 165.67651431 62.37915039 163.38818359 C62.68437823 160.73412625 62.68437823 160.73412625 62.63311768 157.58044434 C62.63875732 156.34370468 62.64439697 155.10696503 62.65020752 153.83274841 C62.64631856 152.45474185 62.6422222 151.07673586 62.63793945 149.69873047 C62.64064828 148.25342126 62.64420861 146.80811343 62.64855957 145.36280823 C62.65769873 141.43106533 62.65413307 137.49942706 62.6478014 133.56768227 C62.64274928 129.45930314 62.64743065 125.35093317 62.65057373 121.24255371 C62.65421568 114.34235012 62.64940828 107.44218929 62.63989258 100.54199219 C62.62900758 92.55648798 62.63253299 84.57108589 62.64354539 76.58558416 C62.65261175 69.73800197 62.65390674 62.89045058 62.64866805 56.04286432 C62.64554476 51.94933046 62.64514882 47.85584465 62.65174103 43.76231384 C62.65750443 39.91443523 62.65353617 36.06668868 62.64195251 32.21882439 C62.63930052 30.80383969 62.64008018 29.38884395 62.64447784 27.9738636 C62.64991326 26.0478873 62.64190025 24.1218868 62.63311768 22.19592285 C62.63236362 21.11633553 62.63160957 20.0367482 62.63083267 18.92444611 C62.63296938 16.21945258 62.63296938 16.21945258 60.37915039 14.38818359 C57.44571379 14.06922184 57.44571379 14.06922184 53.95751953 14.10107422 C53.29880356 14.09424118 52.64008759 14.08740814 51.96141052 14.08036804 C50.52966291 14.06676832 49.09786655 14.05772256 47.66606331 14.05265808 C45.40077323 14.04438416 43.13588926 14.02389384 40.87071228 14.00012207 C36.06108506 13.95184203 31.2514174 13.91894255 26.44165039 13.88818359 C20.87239877 13.85253927 15.30334509 13.81063885 9.73428154 13.75224304 C7.50129978 13.73215395 5.26846901 13.72385054 3.03541565 13.71594238 C1.66699676 13.70297041 0.29858292 13.68945016 -1.06982422 13.67529297 C-2.8628019 13.66435608 -2.8628019 13.66435608 -4.69200134 13.65319824 C-7.62084961 13.38818359 -7.62084961 13.38818359 -10.62084961 11.38818359 C-11.28613472 4.4026899 -11.28613472 4.4026899 -9.57225037 1.78915405 C-6.59475869 -0.34847855 -3.53058728 -0.02933036 0 0 Z " fill="#297DAC" transform="translate(242.620849609375,158.61181640625)"/>
<path d="M0 0 C4.21690386 0.78680177 5.52843079 2.5057125 8 6 C9.17879328 8.35758657 9.13325774 9.7780163 9.14717102 12.40739441 C9.15432632 13.33399872 9.16148163 14.26060303 9.16885376 15.21528625 C9.17154266 16.23503036 9.17423157 17.25477448 9.17700195 18.30541992 C9.18357315 19.37711426 9.19014435 20.44880859 9.19691467 21.55297852 C9.21668189 25.11214258 9.22831864 28.67126436 9.23828125 32.23046875 C9.24235678 33.44451197 9.2464323 34.65855518 9.25063133 35.90938759 C9.27150784 42.33648128 9.28580206 48.76355353 9.29516602 55.19067383 C9.30622663 61.83089706 9.34061842 68.47077655 9.38033772 75.11089611 C9.40648185 80.21444828 9.41485598 85.31792033 9.41844749 90.42153358 C9.42332003 92.8691363 9.43495289 95.31673529 9.45348549 97.76427269 C9.47782639 101.19232107 9.47692048 104.61949912 9.4699707 108.04760742 C9.48278076 109.05723038 9.49559082 110.06685333 9.50878906 111.10707092 C9.4574253 118.06550161 8.24571661 122.45405461 3.4375 127.70703125 C-1.25265391 131.31386157 -4.25978299 133.25602047 -10.22753906 133.22705078 C-11.26831604 133.22689972 -12.30909302 133.22674866 -13.38140869 133.22659302 C-15.05659576 133.21110916 -15.05659576 133.21110916 -16.765625 133.1953125 C-17.91415955 133.1924826 -19.06269409 133.18965271 -20.24603271 133.18673706 C-23.91412781 133.17554263 -27.5819787 133.15043904 -31.25 133.125 C-33.73697564 133.11496926 -36.22395511 133.10584358 -38.7109375 133.09765625 C-44.80737498 133.07560568 -50.90367004 133.04213525 -57 133 C-56.12047255 128.38185802 -53.33885866 125.74716291 -50.25 122.375 C-37.92676911 108.48211573 -28.13715291 93.483468 -19.23046875 77.21728516 C-18.22135578 75.3988796 -17.16403911 73.60730287 -16.09375 71.82421875 C-11.79060628 64.59010724 -9.69405013 56.95051256 -7.52294922 48.88134766 C-6.88882427 46.60003725 -6.13306269 44.36776578 -5.375 42.125 C-1.32013642 28.53199141 -0.48828497 14.09291452 0 0 Z " fill="#3190C3" transform="translate(291,186)"/>
<path d="M0 0 C0.77429855 -0.00525696 1.54859711 -0.01051392 2.34635925 -0.01593018 C4.90827555 -0.02914377 7.46957141 -0.02038667 10.03149414 -0.01025391 C11.81124491 -0.01227446 13.59099487 -0.01518575 15.3707428 -0.01895142 C19.10238521 -0.02337677 22.83381229 -0.01693772 26.56542969 -0.00292969 C31.34844352 0.01414996 36.13095189 0.00433019 40.91394711 -0.01364708 C44.58996892 -0.02448982 48.26587101 -0.02103612 51.94189644 -0.0132637 C53.70534894 -0.01126241 55.46881231 -0.0137185 57.23225212 -0.02070236 C59.6980961 -0.02832359 62.16312309 -0.01670318 64.62890625 0 C65.35787109 -0.00607269 66.08683594 -0.01214539 66.83789062 -0.0184021 C69.714344 0.01768487 71.97474827 0.18619109 74.56770802 1.48133373 C77.25186922 4.30686795 76.87138437 6.42886959 76.86016846 10.2787323 C76.86358616 10.98366658 76.86700386 11.68860086 76.87052512 12.41489679 C76.87712702 14.78294904 76.85509147 17.14987403 76.83325195 19.51782227 C76.83212397 21.21282423 76.83275638 22.90782815 76.83502197 24.60282898 C76.83617196 29.21011281 76.81261673 33.81698203 76.78472614 38.4241693 C76.75975982 43.2368039 76.75737426 48.04944748 76.75262451 52.86213684 C76.74018068 61.97819882 76.70734007 71.09406944 76.66722655 80.21004707 C76.62255258 90.58715942 76.60053282 100.96428081 76.58044481 111.34146535 C76.53860865 132.69047833 76.46822929 154.03931892 76.37915039 175.38818359 C76.04915039 175.38818359 75.71915039 175.38818359 75.37915039 175.38818359 C75.04915039 122.58818359 74.71915039 69.78818359 74.37915039 15.38818359 C70.91415039 34.19818359 70.91415039 34.19818359 67.37915039 53.38818359 C66.38915039 58.33818359 66.38915039 58.33818359 65.37915039 63.38818359 C65.18636352 66.82266325 65.06863563 70.17904861 65.06030273 73.61132812 C65.05025711 74.57839188 65.04021149 75.54545563 65.02986145 76.54182434 C64.99925585 79.70154284 64.98205775 82.86117752 64.96508789 86.02099609 C64.94635801 88.22631541 64.92678327 90.4316277 64.90640259 92.63693237 C64.85526766 98.41373534 64.81554254 104.1905615 64.77825928 109.96746826 C64.73810231 115.87338916 64.68706351 121.77921516 64.63696289 127.68505859 C64.54042449 139.25270008 64.45594954 150.82039538 64.37915039 162.38818359 C64.04915039 162.38818359 63.71915039 162.38818359 63.37915039 162.38818359 C63.37418517 161.2622816 63.37418517 161.2622816 63.36911964 160.11363411 C63.28798493 141.870255 63.19592406 123.6269612 63.09162331 105.38369942 C63.04144968 96.5614814 62.99500742 87.73927291 62.95727539 78.91699219 C62.92438807 71.22966777 62.88457512 63.54241618 62.83636034 55.85517204 C62.81106276 51.78286723 62.78929124 47.71061093 62.77580643 43.63824844 C62.76301545 39.80841642 62.74099356 35.9787505 62.7117672 32.1490097 C62.70266811 30.74049292 62.69699578 29.33194936 62.69493675 27.92340469 C62.69163077 26.00603805 62.67500744 24.08870792 62.65762329 22.17141724 C62.65209253 21.09660662 62.64656178 20.021796 62.64086342 18.91441536 C62.62988637 16.21860124 62.62988637 16.21860124 60.37915039 14.38818359 C57.44571379 14.06922184 57.44571379 14.06922184 53.95751953 14.10107422 C53.29880356 14.09424118 52.64008759 14.08740814 51.96141052 14.08036804 C50.52966291 14.06676832 49.09786655 14.05772256 47.66606331 14.05265808 C45.40077323 14.04438416 43.13588926 14.02389384 40.87071228 14.00012207 C36.06108506 13.95184203 31.2514174 13.91894255 26.44165039 13.88818359 C20.87239877 13.85253927 15.30334509 13.81063885 9.73428154 13.75224304 C7.50129978 13.73215395 5.26846901 13.72385054 3.03541565 13.71594238 C1.66699676 13.70297041 0.29858292 13.68945016 -1.06982422 13.67529297 C-2.8628019 13.66435608 -2.8628019 13.66435608 -4.69200134 13.65319824 C-7.62084961 13.38818359 -7.62084961 13.38818359 -10.62084961 11.38818359 C-11.28613472 4.4026899 -11.28613472 4.4026899 -9.57225037 1.78915405 C-6.59475869 -0.34847855 -3.53058728 -0.02933036 0 0 Z " fill="#4B9BC7" transform="translate(242.620849609375,158.61181640625)"/>
<path d="M0 0 C5.03250746 2.83205886 7.19073824 7.50647648 9.6875 12.5 C10.46087606 19.32092329 9.77250094 24.87843907 5.6875 30.5 C2.26046997 34.09703935 -0.95146722 36.32283737 -6.01953125 36.703125 C-12.00653602 36.79349488 -16.05590215 36.65395871 -21.3125 33.5 C-25.14529205 33.09075333 -25.14529205 33.09075333 -27.01318359 34.82250977 C-27.85357178 35.74761353 -27.85357178 35.74761353 -28.7109375 36.69140625 C-29.34837891 37.38169922 -29.98582031 38.07199219 -30.64257812 38.78320312 C-31.31740234 39.53537109 -31.99222656 40.28753906 -32.6875 41.0625 C-33.39068359 41.82884766 -34.09386719 42.59519531 -34.81835938 43.38476562 C-36.27576006 44.97310977 -37.72917528 46.56511946 -39.17871094 48.16064453 C-42.35357771 51.64137375 -45.58516837 55.06800614 -48.8125 58.5 C-50.42354469 60.21598695 -52.02773441 61.93359033 -53.6015625 63.68383789 C-55.3125 65.5 -55.3125 65.5 -57.4609375 67.40795898 C-62.19656888 71.91239128 -63.84131733 75.14728515 -64.3125 81.72265625 C-64.35199092 84.3356391 -64.35113473 86.94950435 -64.3125 89.5625 C-64.32060801 90.91864619 -64.33230005 92.27477589 -64.34765625 93.63085938 C-64.37108174 96.92214101 -64.35842429 100.20907787 -64.3125 103.5 C-66.7875 103.995 -66.7875 103.995 -69.3125 104.5 C-69.53730412 100.12611878 -69.6993239 95.75540769 -69.80688477 91.37744141 C-69.85177154 89.89312099 -69.91291266 88.40918996 -69.99145508 86.92626953 C-70.38744842 79.24969278 -70.66499645 73.00345809 -65.2265625 66.94140625 C-63.61364504 65.43362735 -61.97647511 63.9512363 -60.3125 62.5 C-59.07389377 61.19858987 -57.84991523 59.88302116 -56.64453125 58.55078125 C-55.47235454 57.30374642 -54.29916406 56.05766379 -53.125 54.8125 C-51.83445966 53.44026944 -50.54409982 52.0678691 -49.25390625 50.6953125 C-48.60566895 50.00598633 -47.95743164 49.31666016 -47.28955078 48.60644531 C-43.44507723 44.51035766 -39.61838496 40.39762594 -35.79223633 36.28442383 C-35.24720459 35.69943115 -34.70217285 35.11443848 -34.140625 34.51171875 C-33.4276123 33.74541138 -33.4276123 33.74541138 -32.70019531 32.96362305 C-31.3125 31.5 -31.3125 31.5 -29.64526367 30.03125 C-27.36626662 27.41284562 -28.18895565 24.09354369 -28.375 20.8125 C-28.5370296 14.58931178 -28.55498951 9.38379607 -24.3125 4.5 C-17.40085142 -1.72048372 -8.78920399 -3.79305952 0 0 Z " fill="#E8E8E8" transform="translate(357.3125,51.5)"/>
<path d="M0 0 C1.65 0 3.3 0 5 0 C4.99363525 1.26070313 4.98727051 2.52140625 4.98071289 3.8203125 C4.96621725 8.52473005 4.99773192 13.22793528 5.04272461 17.93212891 C5.05581561 19.9630113 5.05664343 21.99401301 5.04467773 24.02490234 C5.02958751 26.95528036 5.05946856 29.88238905 5.09765625 32.8125 C5.08340103 33.71178223 5.06914581 34.61106445 5.05445862 35.53759766 C5.19503685 41.74206948 6.79322405 44.83835028 11.14479065 49.24194336 C11.75700974 49.82210205 12.36922882 50.40226074 13 51 C13.898396 51.93585938 14.79679199 52.87171875 15.72241211 53.8359375 C16.98710327 55.09277344 16.98710327 55.09277344 18.27734375 56.375 C19.20224609 57.29667969 20.12714844 58.21835937 21.08007812 59.16796875 C22.03249568 60.11203607 22.98497031 61.05604582 23.9375 62 C24.9175531 62.97502386 25.8973724 63.9502828 26.87695312 64.92578125 C29.24902313 67.28616618 31.6234086 69.64416905 34 72 C38.07964281 70.69844994 38.07964281 70.69844994 42 69 C49.01003515 68.24892481 54.29841825 69.77132687 60 74 C63.98973158 78.47261576 66.32565583 83.10354187 66.6875 89.125 C66.25723857 95.64038736 63.12247258 99.98365105 58.5 104.375 C53.09285102 107.88964684 48.38631977 108.85293085 42 108 C35.34591796 105.90497596 31.45303513 102.0711776 27.88671875 96.15234375 C26.16907292 91.98308009 26.53275821 87.42234484 27 83 C28.625 80.0625 28.625 80.0625 30 78 C28.95816573 74.34132896 26.47508569 72.64468795 23.50479126 70.45248413 C13.12549503 62.76984378 1.01226135 53.55302033 -1.31738281 40.17675781 C-2.78918931 26.85099899 -1.56040503 13.26858692 0 0 Z " fill="#E8E8E8" transform="translate(287,342)"/>
<path d="M0 0 C6.52803513 -0.22935699 13.05502225 -0.38627685 19.58618164 -0.49438477 C21.80467549 -0.53947545 24.02290439 -0.60076875 26.24047852 -0.67895508 C44.74664103 -1.31480571 44.74664103 -1.31480571 50.44189453 2.00830078 C52.63853393 4.2295869 54.31494317 6.38362078 56 9 C56.66 9.33 57.32 9.66 58 10 C58 10.66 58 11.32 58 12 C58.59240479 12.26208252 59.18480957 12.52416504 59.79516602 12.79418945 C62.11534463 14.06308129 63.49785746 15.35124703 65.27734375 17.29296875 C65.87353516 17.92267578 66.46972656 18.55238281 67.08398438 19.20117188 C68.32371076 20.52973007 69.555473 21.86576305 70.77929688 23.20898438 C72.45320124 24.96234051 74.04096481 26.5713853 76 28 C78.67737963 28.09920633 78.67737963 28.09920633 81 27 C87.13747464 26.42702212 92.54913629 26.97703192 98 30 C100.875 32.5625 100.875 32.5625 103 35 C103.66 35.66 104.32 36.32 105 37 C106.76877015 42.23871414 106.61616997 48.35046915 105.375 53.6875 C102.07208838 59.24239682 98.29987746 63.94042468 92 66 C85.52900825 66.96955937 81.01884712 66.1859064 75.6875 62.359375 C71.75381576 59.1905738 69.62076448 56.82073539 68 52 C67.734375 49.28125 67.734375 49.28125 67.75 46.5 C67.74226563 45.12328125 67.74226563 45.12328125 67.734375 43.71875 C68.01995883 40.79571549 68.85847027 38.69196564 70 36 C70.9809736 33.51922245 70.9809736 33.51922245 71 31 C69.43319552 28.66463403 69.43319552 28.66463403 67.0625 26.625 C66.22847656 25.84382813 65.39445312 25.06265625 64.53515625 24.2578125 C60.36204391 20.536703 60.36204391 20.536703 56.0859375 16.93579102 C54 15 54 15 52.45141602 12.72680664 C49.76174811 9.09096065 47.22976848 6.49638453 42.68133545 5.48382568 C35.78912684 4.67952385 28.86389894 4.84163474 21.9375 4.9375 C19.81053705 4.93442237 17.68357587 4.9273004 15.55664062 4.91601562 C10.3699424 4.89725718 5.18627928 4.93364356 0 5 C0 3.35 0 1.7 0 0 Z " fill="#E9E9E9" transform="translate(325,266)"/>
<path d="M0 0 C0.33 0 0.66 0 1 0 C1.16280949 7.29335874 1.28687754 14.58632039 1.3626852 21.88113403 C1.3990865 25.2692319 1.44838402 28.65607898 1.52807617 32.04345703 C1.613287 35.94596986 1.65276043 39.84672451 1.68359375 43.75 C1.71972275 44.95551514 1.75585175 46.16103027 1.79307556 47.40307617 C1.79637004 54.51011249 0.92929712 58.46694977 -4.15403748 63.57009888 C-11.05605626 68.91647199 -21.22764454 67.22796732 -29.5 67.125 C-30.90884781 67.11495069 -32.31770255 67.10582829 -33.7265625 67.09765625 C-37.1512205 67.07419969 -40.57551939 67.04137384 -44 67 C-44 64 -44 64 -42.35546875 62.31640625 C-41.64003906 61.73761719 -40.92460937 61.15882813 -40.1875 60.5625 C-37.92772701 58.72257555 -36.09560664 57.12983336 -34.36328125 54.77734375 C-33.68845703 53.89755859 -33.68845703 53.89755859 -33 53 C-32.34 53 -31.68 53 -31 53 C-30.76539063 52.46246094 -30.53078125 51.92492187 -30.2890625 51.37109375 C-28.63908433 48.33613391 -26.52547595 45.74907881 -24.375 43.0625 C-18.94659815 36.15966841 -13.93612107 28.87224215 -10 21 C-9.34 21 -8.68 21 -8 21 C-7.9175 20.319375 -7.835 19.63875 -7.75 18.9375 C-6.97361977 15.89667744 -5.668863 13.64916036 -4.0546875 10.98046875 C-2.20407205 7.50542418 -1.12565255 3.76070283 0 0 Z " fill="#277CAB" transform="translate(298,251)"/>
<path d="M0 0 C4.86502692 3.33874396 6.8952453 5.26466594 8.1875 11.1875 C8.43854278 16.62078305 7.92536694 20.88160242 4.4375 25.1875 C1.73878932 28.141878 0.25949386 28.55870245 -3.8125 30.1875 C-4.1425 49.9875 -4.4725 69.7875 -4.8125 90.1875 C-6.7925 90.1875 -8.7725 90.1875 -10.8125 90.1875 C-11.1425 70.3875 -11.4725 50.5875 -11.8125 30.1875 C-13.7925 29.1975 -15.7725 28.2075 -17.8125 27.1875 C-20.68977768 24.50158521 -23.54369166 21.31152659 -24.05078125 17.3046875 C-24.24307614 11.49535752 -23.53256161 6.81667778 -19.8125 2.1875 C-13.88686001 -2.46648716 -6.75293015 -3.67438846 0 0 Z " fill="#E8E8E8" transform="translate(257.8125,65.8125)"/>
<path d="M0 0 C3.97793291 1.27991991 6.56064268 3.53811154 9.4375 6.5625 C11.65604022 11.44328849 11.76383334 15.72403776 11 21 C8.68981054 25.99000923 5.00759259 29.69257989 0 32 C-4.67150868 32.93592944 -7.99143553 32.50428223 -12.25 30.375 C-15.29206164 27.74776495 -17.61168502 25.23124967 -20 22 C-20 21.34 -20 20.68 -20 20 C-33.53 20 -47.06 20 -61 20 C-61 18.02 -61 16.04 -61 14 C-47.47 14 -33.94 14 -20 14 C-19.67 12.02 -19.34 10.04 -19 8 C-14.32610112 0.13170979 -8.53352892 -0.95480044 0 0 Z " fill="#E8E8E8" transform="translate(388,212)"/>
<path d="M0 0 C0.70125 0.62390625 1.4025 1.2478125 2.125 1.890625 C1.51222388 4.85237623 0.87127478 6.27121283 -0.875 8.890625 C-10.00729055 11.93472185 -20.95128506 11.1213723 -30.5 11.203125 C-31.63695313 11.23212891 -32.77390625 11.26113281 -33.9453125 11.29101562 C-41.57649754 11.34789946 -47.98933846 10.31294865 -54.875 6.890625 C-55.535 6.230625 -56.195 5.570625 -56.875 4.890625 C-56.8125 2.953125 -56.8125 2.953125 -55.875 0.890625 C-43.29679006 -8.19363774 -12.71965585 -9.3323562 0 0 Z " fill="#215971" transform="translate(144.875,189.109375)"/>
<path d="M0 0 C1.17108559 -0.00065712 1.17108559 -0.00065712 2.36582947 -0.00132751 C4.94702135 0.00076293 7.52756413 0.02410557 10.10864258 0.04760742 C11.89797104 0.05320248 13.6873041 0.057473 15.47663879 0.06047058 C20.18676435 0.07192649 24.89661249 0.10140006 29.60662842 0.13458252 C34.41260017 0.16526734 39.21861673 0.17897252 44.0246582 0.1940918 C53.45511864 0.22626907 62.88537317 0.27747443 72.31567383 0.34057617 C72.31567383 0.67057617 72.31567383 1.00057617 72.31567383 1.34057617 C63.07567383 1.34057617 53.83567383 1.34057617 44.31567383 1.34057617 C44.97567383 4.64057617 45.63567383 7.94057617 46.31567383 11.34057617 C47.90508789 11.37924805 47.90508789 11.37924805 49.52661133 11.41870117 C50.91467384 11.47497398 52.30269308 11.53232151 53.69067383 11.59057617 C54.73868164 11.6118457 54.73868164 11.6118457 55.80786133 11.63354492 C57.83911133 11.73120117 57.83911133 11.73120117 61.31567383 12.34057617 C62.79223633 14.38745117 62.79223633 14.38745117 63.31567383 16.34057617 C62.32567383 15.68057617 61.33567383 15.02057617 60.31567383 14.34057617 C57.28284145 14.02416152 57.28284145 14.02416152 53.78051758 14.0534668 C53.12165558 14.04663376 52.46279358 14.03980072 51.78396606 14.03276062 C50.35496426 14.01918264 48.925914 14.0101229 47.49685669 14.00505066 C45.23568791 13.99676208 42.97492309 13.97625883 40.71386719 13.95251465 C35.91452928 13.90429173 31.11515123 13.87134666 26.31567383 13.84057617 C20.75427594 13.80492085 15.19307606 13.76303593 9.63186646 13.70463562 C7.40331414 13.68455273 5.17491305 13.67624516 2.94628906 13.66833496 C1.58113045 13.6553636 0.2159769 13.64184344 -1.14916992 13.62768555 C-2.34147217 13.62039429 -3.53377441 13.61310303 -4.76220703 13.60559082 C-7.68432617 13.34057617 -7.68432617 13.34057617 -10.68432617 11.34057617 C-11.34913364 4.36009781 -11.34913364 4.36009781 -9.63969421 1.73857117 C-6.64136498 -0.40509139 -3.54836636 -0.05191029 0 0 Z " fill="#5EBFE8" transform="translate(242.684326171875,158.659423828125)"/>
<path d="M0 0 C2.31 0 4.62 0 7 0 C6.99363525 1.11971191 6.98727051 2.23942383 6.98071289 3.39306641 C6.966236 7.56450603 6.99769002 11.73457507 7.04272461 15.90576172 C7.05582974 17.70779752 7.05663023 19.50996791 7.04467773 21.31201172 C7.02961564 23.90986482 7.05941782 26.5040125 7.09765625 29.1015625 C7.08340103 29.9017984 7.06914581 30.7020343 7.05445862 31.52651978 C7.14298847 34.97984713 7.24356802 37.14590861 9.58940125 39.79460144 C11.46519138 41.40429717 11.46519138 41.40429717 13.41998291 42.74665833 C15 44 15 44 15.82421875 46.59765625 C15.52841393 51.93059451 15.14545254 55.20987196 11 59 C7.22786948 61.51475368 5.47964158 61.44796416 1 61 C-2.33021686 59.70007632 -5.13570788 58.05218171 -7.4375 55.25 C-8.69985317 50.2005873 -8.8948903 46.50213728 -6.25 42.0625 C-4 40 -4 40 0 39 C0 26.13 0 13.26 0 0 Z " fill="#E9E9E9" transform="translate(246,342)"/>
<path d="M0 0 C3.18500291 1.62145603 5.22111096 2.97328264 7.375 5.8125 C8.47570828 9.66497899 8.47570828 13.33502101 7.375 17.1875 C5.20045028 20.05395191 3.24288049 21.40804049 0 23 C-4.94090552 23.45233642 -8.09713581 22.71476748 -12 19.625 C-14 17 -14 17 -15 14 C-22.59 14 -30.18 14 -38 14 C-38 12.02 -38 10.04 -38 8 C-37.31897217 7.99589111 -36.63794434 7.99178223 -35.9362793 7.98754883 C-32.85246794 7.95466677 -29.77064674 7.88403047 -26.6875 7.8125 C-25.61564453 7.80669922 -24.54378906 7.80089844 -23.43945312 7.79492188 C-22.41142578 7.76591797 -21.38339844 7.73691406 -20.32421875 7.70703125 C-18.9024231 7.68346558 -18.9024231 7.68346558 -17.4519043 7.65942383 C-14.7671003 7.22327875 -14.7671003 7.22327875 -13.35473633 4.58081055 C-12.90767334 3.72914307 -12.46061035 2.87747559 -12 2 C-7.95685624 -0.69542917 -4.74891289 -0.66452365 0 0 Z " fill="#E9E9E9" transform="translate(362,298)"/>
<path d="M0 0 C2.0625 0.4375 2.0625 0.4375 4 1 C4.81916817 21.88878843 4.81916817 21.88878843 0 29 C-1.53125 30.390625 -1.53125 30.390625 -3.125 31.5625 C-6.65247417 34.55318462 -6.84194511 36.33554862 -7.5859375 40.7265625 C-8.69411794 46.81110037 -11.25063892 51.11415912 -16 55 C-19.5625 56.6875 -19.5625 56.6875 -23 58 C-23.721875 58.391875 -24.44375 58.78375 -25.1875 59.1875 C-27 60 -27 60 -31 60 C-31 59.01 -31 58.02 -31 57 C-30.236875 56.731875 -29.47375 56.46375 -28.6875 56.1875 C-26.02090961 55.00923913 -24.99470827 54.024855 -23 52 C-21.84742305 51.18795715 -20.68023448 50.39629359 -19.5 49.625 C-14.64888779 46.20670574 -13.05549919 42.75726831 -12 37 C-12.97839844 37.03480469 -13.95679688 37.06960937 -14.96484375 37.10546875 C-30.94925756 37.43553039 -30.94925756 37.43553039 -36 34 C-36.7265625 31.890625 -36.7265625 31.890625 -37 30 C-36.36835938 30.0721875 -35.73671875 30.144375 -35.0859375 30.21875 C-29.60206463 30.78768206 -24.13776254 31.13369699 -18.625 31.25 C-17.48289063 31.27578125 -16.34078125 31.3015625 -15.1640625 31.328125 C-10.26590711 30.82016814 -7.99944048 29.12153618 -4.76171875 25.48828125 C-2.36882911 20.75025365 -2.1301372 16.43029827 -1.8125 11.1875 C-1.67669082 9.28490217 -1.53755402 7.38253791 -1.39453125 5.48046875 C-1.31489136 4.22592896 -1.31489136 4.22592896 -1.23364258 2.94604492 C-1 1 -1 1 0 0 Z " fill="#E5E9EB" transform="translate(187,170)"/>
<path d="M0 0 C1.32 0 2.64 0 4 0 C4 5.94 4 11.88 4 18 C3.34 18 2.68 18 2 18 C1.95875 18.825 1.9175 19.65 1.875 20.5 C0.62878994 25.48484025 -2.37404628 29.37404628 -6 33 C-6.29684878 34.36961911 -6.56242355 35.7460738 -6.8125 37.125 C-8.54549835 45.04907217 -12.20600952 50.46091153 -19 55 C-20.98867713 55.69971973 -22.98608051 56.37664397 -25 57 C-25.33 57.99 -25.66 58.98 -26 60 C-27.65 60 -29.3 60 -31 60 C-31.33 58.68 -31.66 57.36 -32 56 C-30.69675781 55.36384766 -30.69675781 55.36384766 -29.3671875 54.71484375 C-19.7200269 50.0440981 -19.7200269 50.0440981 -13 42 C-12.6037514 40.01150857 -12.25947309 38.01091642 -12 36 C-13.0621875 36.03480469 -14.124375 36.06960938 -15.21875 36.10546875 C-29.15671621 36.4216419 -29.15671621 36.4216419 -36 33 C-36 31.68 -36 30.36 -36 29 C-35.44054687 29.0721875 -34.88109375 29.144375 -34.3046875 29.21875 C-21.11684471 30.99846393 -21.11684471 30.99846393 -8.375 28.5 C-2.61976924 22.44186235 -0.90219416 15.4713105 -0.4375 7.3125 C-0.37272461 6.2596582 -0.37272461 6.2596582 -0.30664062 5.18554688 C-0.2008264 3.45724794 -0.09993419 1.7286489 0 0 Z " fill="#8C9AA1" transform="translate(193,276)"/>
<path d="M0 0 C1.22265625 2.078125 1.22265625 2.078125 2 4 C-0.59680821 6.84412328 -2.51137285 7.90203471 -6.44848633 8.16113281 C-9.56993894 8.20658958 -12.69074411 8.23526605 -15.8125 8.25 C-17.43381836 8.2809375 -17.43381836 8.2809375 -19.08789062 8.3125 C-24.89261148 8.34100692 -29.10105333 8.24886515 -34 5 C-34 3.68 -34 2.36 -34 1 C-24.2700213 -3.96849976 -10.19551114 -3.57737233 0 0 Z " fill="#73DAF5" transform="translate(273,193)"/>
<path d="M0 0 C0.33 0 0.66 0 1 0 C1 3.3 1 6.6 1 10 C1.88300781 9.97679687 2.76601562 9.95359375 3.67578125 9.9296875 C23.40691489 9.63297872 23.40691489 9.63297872 27.5234375 13.390625 C28.25433594 14.18726563 28.25433594 14.18726563 29 15 C30.45964243 16.00804035 31.94051796 16.98579303 33.4375 17.9375 C39.80593767 22.13817957 39.80593767 22.13817957 42 25 C42 26.32 42 27.64 42 29 C38.75766155 28.41496937 37.11382598 27.45378947 34.75 25.1875 C26.79929666 18.10321946 17.51567214 15.80495053 7.0625 15.375 C6.28326172 15.33632812 5.50402344 15.29765625 4.70117188 15.2578125 C2.80112621 15.16455873 0.90059722 15.08124038 -1 15 C1 13 1 13 3.35546875 12.76953125 C8.66485476 12.85008745 13.76840873 13.06993933 19 14 C19 13.34 19 12.68 19 12 C12.73 11.67 6.46 11.34 0 11 C0 7.37 0 3.74 0 0 Z " fill="#DCE1E3" transform="translate(104,151)"/>
<path d="M0 0 C0.65392731 -0.00043808 1.30785461 -0.00087616 1.9815979 -0.00132751 C4.14078743 0.00076078 6.29919826 0.02409229 8.45825195 0.04760742 C9.95611649 0.05320327 11.45398653 0.05747342 12.95185852 0.06047058 C16.89262066 0.07192037 20.83305065 0.1013884 24.77368164 0.13458252 C28.79544583 0.16528069 32.81726373 0.17897536 36.83911133 0.1940918 C44.72923765 0.22625824 52.6190941 0.2774559 60.5090332 0.34057617 C60.5090332 1.00057617 60.5090332 1.66057617 60.5090332 2.34057617 C59.75592361 2.34644241 59.00281403 2.35230865 58.22688293 2.35835266 C51.12033018 2.41632009 44.01409296 2.48841974 36.90785694 2.57629108 C33.25467458 2.62096835 29.60160305 2.66022995 25.94824219 2.68701172 C22.42077141 2.71307163 18.89372774 2.75349209 15.36652184 2.80376244 C13.36975642 2.82850193 11.37282565 2.83846915 9.37593079 2.84822083 C8.15504257 2.86801498 6.93415436 2.88780914 5.67626953 2.90820312 C4.60371414 2.91930618 3.53115875 2.93040924 2.42610168 2.94184875 C-0.92235296 3.39954136 -2.82408659 4.28105314 -5.4909668 6.34057617 C-6.38303859 9.43628688 -6.38303859 9.43628688 -6.4909668 12.34057617 C-7.4809668 11.68057617 -8.4709668 11.02057617 -9.4909668 10.34057617 C-10.14585776 4.33740903 -10.14585776 4.33740903 -8.37321472 1.63920593 C-5.58452483 -0.28481037 -3.36438208 -0.01893648 0 0 Z " fill="#67A4C5" transform="translate(241.490966796875,324.659423828125)"/>
<path d="M0 0 C2.0625 0.4375 2.0625 0.4375 4 1 C4.82198054 21.96050372 4.82198054 21.96050372 0 29 C-2.140625 30.75390625 -2.140625 30.75390625 -4 32 C-3.34 30.02 -2.68 28.04 -2 26 C-3.98 26.99 -3.98 26.99 -6 28 C-5.566875 26.9790625 -5.566875 26.9790625 -5.125 25.9375 C-2.8374444 19.96443815 -1.73501776 14.51846673 -1.4375 8.125 C-1.10071942 1.10071942 -1.10071942 1.10071942 0 0 Z " fill="#85979F" transform="translate(187,170)"/>
<path d="M0 0 C6.27 0.33 12.54 0.66 19 1 C19 3.97 19 6.94 19 10 C19.33 11.32 19.66 12.64 20 14 C15.99775685 19.63278666 9.2771885 22.48739772 3 25 C1.68 25 0.36 25 -1 25 C-1 24.01 -1 23.02 -1 22 C-0.236875 21.731875 0.52625 21.46375 1.3125 21.1875 C3.97909039 20.00923913 5.00529173 19.024855 7 17 C8.15257695 16.18795715 9.31976552 15.39629359 10.5 14.625 C15.35111221 11.20670574 16.94450081 7.75726831 18 2 C16.95199219 2.02320313 15.90398437 2.04640625 14.82421875 2.0703125 C13.44531963 2.08907303 12.0664128 2.10727293 10.6875 2.125 C9.65206055 2.15013672 9.65206055 2.15013672 8.59570312 2.17578125 C4.82864604 2.21217794 3.21568296 2.14378864 0 0 Z " fill="#B0BCC1" transform="translate(157,205)"/>
<path d="M0 0 C0 1.32 0 2.64 0 4 C-1.11375 4.474375 -2.2275 4.94875 -3.375 5.4375 C-11.47516118 9.50199369 -18.15592605 15.7876602 -22 24 C-22.33 23.01 -22.66 22.02 -23 21 C-24.32 21 -25.64 21 -27 21 C-27 20.34 -27 19.68 -27 19 C-25.56226745 17.7628813 -24.11814319 16.53210516 -22.63671875 15.34765625 C-20.81771097 13.89403355 -20.81771097 13.89403355 -18.625 11.625 C-16.44487068 9.44487068 -14.2361265 7.36469334 -11.9375 5.3125 C-11.28652344 4.73113281 -10.63554688 4.14976562 -9.96484375 3.55078125 C-6.43063284 0.76135435 -4.59650326 0 0 0 Z " fill="#B1BBC0" transform="translate(110,313)"/>
<path d="M0 0 C0.825 0.28875 1.65 0.5775 2.5 0.875 C9.34399817 3.07485656 15.85693195 4.37167457 23 5 C23 6.65 23 8.3 23 10 C15.0671639 10.41428738 5.9121788 10.58024312 -0.80078125 5.6875 C-2.1875 4.3125 -2.1875 4.3125 -4 2 C-1.525 2.99 -1.525 2.99 1 4 C0.67 2.68 0.34 1.36 0 0 Z " fill="#F8F9F9" transform="translate(94,232)"/>
<path d="M0 0 C1.32 0.33 2.64 0.66 4 1 C4 1.99 4 2.98 4 4 C3.34 4 2.68 4 2 4 C1.77957031 4.70898438 1.55914062 5.41796875 1.33203125 6.1484375 C-0.29629617 9.63429971 -2.58655385 11.98955671 -5.3125 14.625 C-6.0230957 15.34042969 -6.0230957 15.34042969 -6.74804688 16.0703125 C-9.62851324 18.90743395 -12.54550053 20.94275935 -16 23 C-16.66 23.99 -17.32 24.98 -18 26 C-18 24.35 -18 22.7 -18 21 C-18.66 20.67 -19.32 20.34 -20 20 C-19.2265625 19.47792969 -18.453125 18.95585937 -17.65625 18.41796875 C-10.18223683 13.13620944 -4.97174645 7.82318927 0 0 Z " fill="#8E9BA3" transform="translate(161,365)"/>
<path d="M0 0 C10.3065996 0.66494191 21.00257776 4.1936832 29 11 C29 12.32 29 13.64 29 15 C25.64898154 14.37215681 23.48793123 13.09798417 20.6875 11.1875 C14.24325678 7.17796336 7.32095199 5.65941578 0 4 C0.99 3.34 1.98 2.68 3 2 C2.01 1.34 1.02 0.68 0 0 Z " fill="#DEE2E4" transform="translate(150,116)"/>
<path d="M0 0 C0.99 0.33 1.98 0.66 3 1 C2.36486144 6.34805079 0.13469246 8.17009872 -3.859375 11.49609375 C-6.42931492 13.30161723 -9.00195467 14.12252332 -12 15 C-12.33 15.99 -12.66 16.98 -13 18 C-14.65 18 -16.3 18 -18 18 C-18.33 16.68 -18.66 15.36 -19 14 C-18.13117188 13.57589844 -17.26234375 13.15179688 -16.3671875 12.71484375 C-9.62773495 9.28480918 -4.47588066 6.26623292 0 0 Z " fill="#909DA4" transform="translate(180,318)"/>
<path d="M0 0 C0.33 0 0.66 0 1 0 C1 3.3 1 6.6 1 10 C1.88300781 9.97679687 2.76601562 9.95359375 3.67578125 9.9296875 C11.37801243 9.81386447 18.48696035 10.28273379 26 12 C25.4740625 12.928125 25.4740625 12.928125 24.9375 13.875 C24.628125 14.57625 24.31875 15.2775 24 16 C24.33 16.66 24.66 17.32 25 18 C23.865625 17.690625 22.73125 17.38125 21.5625 17.0625 C14.17323386 15.38744128 6.5438973 15.32912526 -1 15 C1 13 1 13 3.35546875 12.76953125 C8.66485476 12.85008745 13.76840873 13.06993933 19 14 C19 13.34 19 12.68 19 12 C12.73 11.67 6.46 11.34 0 11 C0 7.37 0 3.74 0 0 Z " fill="#AFBBC0" transform="translate(104,151)"/>
<path d="M0 0 C4.55138662 -0.25285481 4.55138662 -0.25285481 6.71875 0.96875 C9.8862815 2.4006478 12.79217152 2.43289842 16.25 2.625 C17.51328125 2.69976562 18.7765625 2.77453125 20.078125 2.8515625 C21.04234375 2.90054687 22.0065625 2.94953125 23 3 C23 3.66 23 4.32 23 5 C16.4269682 8.2865159 6.76443487 5.8038493 0 4 C0 2.68 0 1.36 0 0 Z " fill="#C0C8CC" transform="translate(157,305)"/>
<path d="M0 0 C0.99 0 1.98 0 3 0 C3.05434116 2.5419589 3.0938339 5.08273682 3.125 7.625 C3.14175781 8.33785156 3.15851563 9.05070313 3.17578125 9.78515625 C3.21684602 14.2612164 2.69086567 17.77949278 1 22 C0.01 22 -0.98 22 -2 22 C-1.84660156 21.18273437 -1.69320312 20.36546875 -1.53515625 19.5234375 C-0.9322218 15.55375228 -0.65842036 11.63053967 -0.4375 7.625 C-0.39431641 6.88894531 -0.35113281 6.15289062 -0.30664062 5.39453125 C-0.20156201 3.59651932 -0.10037907 1.79828042 0 0 Z " fill="#F5F6F7" transform="translate(187,172)"/>
<path d="M0 0 C4.29 0.33 8.58 0.66 13 1 C13 2.65 13 4.3 13 6 C6.59370576 6.20852314 1.07027358 6.1583195 -5 4 C-5 3.67 -5 3.34 -5 3 C-0.38 3 4.24 3 9 3 C4.545 2.01 4.545 2.01 0 1 C0 0.67 0 0.34 0 0 Z " fill="#A9B5BB" transform="translate(104,236)"/>
<path d="M0 0 C6.43681228 0.51085812 11.95942424 1.72942897 18 4 C18 4.33 18 4.66 18 5 C11.40609458 5.99989549 6.38232875 6.00925164 0 4 C0.99 3.34 1.98 2.68 3 2 C2.01 1.34 1.02 0.68 0 0 Z " fill="#D2D8DB" transform="translate(150,116)"/>
<path d="M0 0 C2.6875 0.3125 2.6875 0.3125 5 1 C5 1.66 5 2.32 5 3 C3.58957044 3.84384675 2.17135868 4.67469496 0.75 5.5 C-0.43335938 6.19609375 -0.43335938 6.19609375 -1.640625 6.90625 C-4 8 -4 8 -8 8 C-8 7.01 -8 6.02 -8 5 C-7.236875 4.731875 -6.47375 4.46375 -5.6875 4.1875 C-2.98113866 3.21391517 -2.98113866 3.21391517 -1.5 1.3125 C-0.7575 0.6628125 -0.7575 0.6628125 0 0 Z " fill="#D1D8DB" transform="translate(164,222)"/>
<path d="M0 0 C7.59 0.33 15.18 0.66 23 1 C23 1.66 23 2.32 23 3 C19.91684615 3.08733513 16.83401173 3.14050127 13.75 3.1875 C12.87730469 3.21263672 12.00460938 3.23777344 11.10546875 3.26367188 C9.83896484 3.27817383 9.83896484 3.27817383 8.546875 3.29296875 C7.38430176 3.31653442 7.38430176 3.31653442 6.19824219 3.34057617 C4 3 4 3 0 0 Z " fill="#F1F3F4" transform="translate(153,202)"/>
<path d="M0 0 C0.98226562 0.09087891 0.98226562 0.09087891 1.984375 0.18359375 C8.98663453 0.82645656 15.99184389 1.42515997 23 2 C23 2.33 23 2.66 23 3 C17.06 3 11.12 3 5 3 C5.66 3.66 6.32 4.32 7 5 C4.03 4.505 4.03 4.505 1 4 C0.67 2.68 0.34 1.36 0 0 Z " fill="#A4B1B7" transform="translate(150,200)"/>
<path d="M0 0 C0 0.66 0 1.32 0 2 C-1.98 2.99 -1.98 2.99 -4 4 C-4 5.32 -4 6.64 -4 8 C-5.65 8 -7.3 8 -9 8 C-9.33 6.68 -9.66 5.36 -10 4 C-8.71086513 3.32845067 -7.41859796 2.66291141 -6.125 2 C-5.40570313 1.62875 -4.68640625 1.2575 -3.9453125 0.875 C-2 0 -2 0 0 0 Z " fill="#78878F" transform="translate(171,328)"/>
<path d="M0 0 C-1.2065625 0.804375 -1.2065625 0.804375 -2.4375 1.625 C-5.46508424 4.43105369 -5.72510809 5.96825194 -6 10 C-6.99 9.34 -7.98 8.68 -9 8 C-9.1875 4.375 -9.1875 4.375 -9 1 C-5.8035914 -0.06546953 -3.34252724 -0.07427838 0 0 Z " fill="#3A90BF" transform="translate(241,327)"/>
<path d="M0 0 C0 1.32 0 2.64 0 4 C-5.41538462 6.21538462 -5.41538462 6.21538462 -8.375 5.125 C-8.91125 4.75375 -9.4475 4.3825 -10 4 C-4.5 0 -4.5 0 0 0 Z " fill="#9EABB1" transform="translate(110,313)"/>
<path d="M0 0 C-1.3881735 3.12857014 -3.01101878 5.28189174 -5.4375 7.6875 C-6.03433594 8.28949219 -6.63117188 8.89148438 -7.24609375 9.51171875 C-9 11 -9 11 -12 12 C-10.53033642 8.60140297 -8.61962486 6.35036291 -6 3.75 C-5.29875 3.04359375 -4.5975 2.3371875 -3.875 1.609375 C-2 0 -2 0 0 0 Z " fill="#375562" transform="translate(122,126)"/>
<path d="M0 0 C0.33 0.99 0.66 1.98 1 3 C-1.31 5.31 -3.62 7.62 -6 10 C-6.99 9.67 -7.98 9.34 -9 9 C-6.03 6.03 -3.06 3.06 0 0 Z " fill="#9EAAB0" transform="translate(158,373)"/>
<path d="M0 0 C1.32 0.33 2.64 0.66 4 1 C4 1.99 4 2.98 4 4 C3.34 4 2.68 4 2 4 C1.67 4.66 1.34 5.32 1 6 C-0.66666667 6 -2.33333333 6 -4 6 C-2.68 4.02 -1.36 2.04 0 0 Z " fill="#839199" transform="translate(161,365)"/>
<path d="M0 0 C0.33 1.32 0.66 2.64 1 4 C1.66 4 2.32 4 3 4 C2.34 5.32 1.68 6.64 1 8 C0.34 8 -0.32 8 -1 8 C-2.62514468 9.45833358 -2.62514468 9.45833358 -4 11 C-4.66 10.67 -5.32 10.34 -6 10 C-5.38125 9.278125 -4.7625 8.55625 -4.125 7.8125 C-2.16333647 5.21618062 -1.04684 3.05328334 0 0 Z " fill="#85939A" transform="translate(191,294)"/>
<path d="M0 0 C1.98 0.66 3.96 1.32 6 2 C4.68 3.32 3.36 4.64 2 6 C2.99 6.33 3.98 6.66 5 7 C0.68607774 6.5206753 -1.16569547 5.2542015 -4 2 C-1.525 2.99 -1.525 2.99 1 4 C0.67 2.68 0.34 1.36 0 0 Z " fill="#A7B4BA" transform="translate(94,232)"/>
<path d="M0 0 C0.99 0.33 1.98 0.66 3 1 C3.25 3.8125 3.25 3.8125 3 7 C1 8.875 1 8.875 -1 10 C-0.34 8.02 0.32 6.04 1 4 C-0.98 4.99 -0.98 4.99 -3 6 C-1.125 1.125 -1.125 1.125 0 0 Z " fill="#A5B2B8" transform="translate(184,192)"/>
<path d="M0 0 C0.66 0.33 1.32 0.66 2 1 C0.90344712 2.31886772 -0.20253423 3.62990057 -1.3125 4.9375 C-1.92738281 5.66839844 -2.54226562 6.39929688 -3.17578125 7.15234375 C-5 9 -5 9 -8 10 C-6.34908222 5.70761377 -3.26245434 3.1206085 0 0 Z " fill="#516B76" transform="translate(93,171)"/>
<path d="M0 0 C0.66 0.33 1.32 0.66 2 1 C0.54782324 2.50596108 -0.91192861 4.00462104 -2.375 5.5 C-3.18710938 6.3353125 -3.99921875 7.170625 -4.8359375 8.03125 C-7 10 -7 10 -9 10 C-7.61811547 6.78956118 -6.07578097 4.95063635 -3.375 2.75 C-2.74335938 2.22921875 -2.11171875 1.7084375 -1.4609375 1.171875 C-0.73777344 0.59179688 -0.73777344 0.59179688 0 0 Z " fill="#47626E" transform="translate(159,88)"/>
<path d="M0 0 C0.66 0.33 1.32 0.66 2 1 C0.88200014 2.33920838 -0.24461897 3.67122556 -1.375 5 C-2.00148438 5.7425 -2.62796875 6.485 -3.2734375 7.25 C-4.12808594 8.11625 -4.12808594 8.11625 -5 9 C-5.66 9 -6.32 9 -7 9 C-5.44499019 5.18315774 -2.96404505 2.80804268 0 0 Z " fill="#38505C" transform="translate(98,323)"/>
<path d="M0 0 C2.31 0.33 4.62 0.66 7 1 C6.01 1.495 6.01 1.495 5 2 C5 2.66 5 3.32 5 4 C2.03 3.505 2.03 3.505 -1 3 C-0.67 2.01 -0.34 1.02 0 0 Z " fill="#E7EAEB" transform="translate(97,235)"/>
<path d="M0 0 C1.67542976 0.28604898 3.34385343 0.61781233 5 1 C5 1.66 5 2.32 5 3 C4.01 3.495 4.01 3.495 3 4 C2.01 5.485 2.01 5.485 1 7 C1 5.35 1 3.7 1 2 C0.34 1.67 -0.32 1.34 -1 1 C-0.67 0.67 -0.34 0.34 0 0 Z " fill="#97A3A9" transform="translate(142,384)"/>
<path d="M0 0 C1.65 0 3.3 0 5 0 C5.33 0.66 5.66 1.32 6 2 C5.01 2.495 5.01 2.495 4 3 C4.33 3.66 4.66 4.32 5 5 C3.35 4.67 1.7 4.34 0 4 C0 2.68 0 1.36 0 0 Z " fill="#A5B1B6" transform="translate(157,305)"/>
<path d="M0 0 C0.99 0.33 1.98 0.66 3 1 C3 1.66 3 2.32 3 3 C-1.38461538 6 -1.38461538 6 -4 6 C-3.34 4.68 -2.68 3.36 -2 2 C-1.34 2 -0.68 2 0 2 C0 1.34 0 0.68 0 0 Z " fill="#ECEEF0" transform="translate(166,222)"/>
<path d="M0 0 C0.99 0.33 1.98 0.66 3 1 C3 1.66 3 2.32 3 3 C0.64561267 4.42944945 -0.48032433 5.08661261 -3.25 4.625 C-3.8275 4.41875 -4.405 4.2125 -5 4 C-3.35 3.34 -1.7 2.68 0 2 C0 1.34 0 0.68 0 0 Z " fill="#9EAAB0" transform="translate(171,328)"/>
<path d="M0 0 C0.99 0 1.98 0 3 0 C3 1.65 3 3.3 3 5 C2.01 5.33 1.02 5.66 0 6 C0 4.02 0 2.04 0 0 Z " fill="#B2BCC1" transform="translate(193,276)"/>
</svg>
